<svg xmlns="http://www.w3.org/2000/svg" width="58.81" height="35.452" viewBox="0 0 58.81 35.452">
  <g id="Warstwa_1" data-name="Warstwa 1" transform="translate(524.365 -54.771)">
    <g id="Group_225" data-name="Group 225" transform="translate(-524.365 54.771)">
      <path id="Path_1080" data-name="Path 1080" d="M-332.411,173.546h-1.627v-4.675c0-.984-.434-1.514-1.222-1.575a7.317,7.317,0,0,0-1.835.2v6.046h-1.627v-7.2a20.178,20.178,0,0,1,3.766-.439,2.531,2.531,0,0,1,1.852.738,2.617,2.617,0,0,1,.693,1.934Z" transform="translate(363.751 -150.919)" fill="#404041"/>
      <path id="Path_1081" data-name="Path 1081" d="M-107.658,159.884a3.37,3.37,0,0,1-.833.1,2.144,2.144,0,0,1-1.817-.612,3.3,3.3,0,0,1-.353-1.823v-7.5h1.606v2.12h1.426v1.312h-1.426v3.963a1.476,1.476,0,0,0,.164.846.983.983,0,0,0,.818.262,3.5,3.5,0,0,0,.416-.029Z" transform="translate(166.439 -137.208)" fill="#404041"/>
      <path id="Path_1082" data-name="Path 1082" d="M-515.855,181.675a13.1,13.1,0,0,1-4.255.736,13.107,13.107,0,0,1-4.255-.736,13.109,13.109,0,0,1,4.255-.736,13.106,13.106,0,0,1,4.255.736" transform="translate(524.365 -163.928)" fill="#ffcb04"/>
      <path id="Path_1083" data-name="Path 1083" d="M-448.142,61.688a12.768,12.768,0,0,1-3-3.047,12.5,12.5,0,0,1-1.757-3.87,12.771,12.771,0,0,1,3,3.047,12.5,12.5,0,0,1,1.757,3.87" transform="translate(462.536 -54.771)" fill="#ffcb04"/>
      <path id="Path_1084" data-name="Path 1084" d="M-497.785,115.6a13.07,13.07,0,0,1-4.11-1.308,12.83,12.83,0,0,1-3.4-2.608,13.072,13.072,0,0,1,4.11,1.308,12.832,12.832,0,0,1,3.4,2.608" transform="translate(507.87 -104.01)" fill="#ffcb04"/>
      <path id="Path_1085" data-name="Path 1085" d="M-442.481,118.831a6.177,6.177,0,0,0,2.664-.963s-3.378-1.022-3.165-4.052a11.162,11.162,0,0,1,9.731-9.5,11.608,11.608,0,0,0-1.636-.11,11.175,11.175,0,0,0-11.235,11.115,11.18,11.18,0,0,0,11.337,11.015,11.579,11.579,0,0,0,1.531-.111,11.219,11.219,0,0,1-9.314-7.65" transform="translate(456.671 -97.538)" fill="#ffcb04"/>
      <path id="Path_1086" data-name="Path 1086" d="M-448.142,266.415a12.762,12.762,0,0,0-3,3.047,12.5,12.5,0,0,0-1.757,3.87,12.77,12.77,0,0,0,3-3.047,12.5,12.5,0,0,0,1.757-3.87" transform="translate(462.536 -237.88)" fill="#ffcb04"/>
      <path id="Path_1087" data-name="Path 1087" d="M-497.785,231.755a13.07,13.07,0,0,0-4.11,1.308,12.828,12.828,0,0,0-3.4,2.608,13.073,13.073,0,0,0,4.11-1.308,12.832,12.832,0,0,0,3.4-2.608" transform="translate(507.87 -207.893)" fill="#ffcb04"/>
      <rect id="Rectangle_203" data-name="Rectangle 203" width="1.659" height="9.78" transform="translate(21.762 12.839)" fill="#404041"/>
      <path id="Path_1088" data-name="Path 1088" d="M-272.858,153.175a3.231,3.231,0,0,1-.929,2.413,3.448,3.448,0,0,1-2.521.911h-2.011v3.09h-1.659v-9.781h3.551a3.644,3.644,0,0,1,2.647.9,3.287,3.287,0,0,1,.922,2.47m-1.676,0a1.555,1.555,0,0,0-1.739-1.778h-2.046v3.528h2.015a1.778,1.778,0,0,0,1.3-.459,1.725,1.725,0,0,0,.468-1.29" transform="translate(312.928 -136.995)" fill="#404041"/>
      <path id="Path_1089" data-name="Path 1089" d="M-215.818,168.718a4.041,4.041,0,0,1-.989,2.843,3.319,3.319,0,0,1-2.565,1.078,3.318,3.318,0,0,1-2.564-1.078,4.04,4.04,0,0,1-.989-2.843,4.015,4.015,0,0,1,.989-2.835,3.33,3.33,0,0,1,2.564-1.071,3.326,3.326,0,0,1,2.573,1.071,4.037,4.037,0,0,1,.981,2.835m-1.68.008a2.747,2.747,0,0,0-.512-1.751,1.653,1.653,0,0,0-1.361-.647,1.645,1.645,0,0,0-1.361.654,2.754,2.754,0,0,0-.512,1.744,2.747,2.747,0,0,0,.512,1.751,1.651,1.651,0,0,0,1.361.647,1.652,1.652,0,0,0,1.361-.647,2.747,2.747,0,0,0,.512-1.751" transform="translate(263.567 -149.976)" fill="#404041"/>
      <path id="Path_1090" data-name="Path 1090" d="M-159.784,170.258a2.261,2.261,0,0,1-.863,1.822,3.447,3.447,0,0,1-2.274.714,4.39,4.39,0,0,1-3.405-1.312l1.234-1.035a2.981,2.981,0,0,0,2.156.9,1.923,1.923,0,0,0,1.086-.27.8.8,0,0,0,.4-.678.641.641,0,0,0-.461-.641,9.806,9.806,0,0,0-1.428-.277,4.952,4.952,0,0,1-1.993-.612,1.7,1.7,0,0,1-.7-1.486,2.078,2.078,0,0,1,.847-1.684,3.516,3.516,0,0,1,2.261-.678,4.123,4.123,0,0,1,2.914,1.123l-.967,1.02a2.935,2.935,0,0,0-1.993-.773q-1.427,0-1.427.8,0,.466.654.641.921.145,1.829.306,2.126.394,2.126,2.114" transform="translate(214.599 -150.16)" fill="#404041"/>
    </g>
  </g>
</svg>
