<?xml version="1.0" encoding="UTF-8"?><svg id="a" xmlns="http://www.w3.org/2000/svg" viewBox="0 0 1811.67 376.74"><path d="M301.08,150.94c0,96.62-104.23,191.8-139.23,222.03-6.7,5.04-15.92,5.04-22.62,0C104.23,342.74,0,244.89,0,150.94,0,67.8,67.4.4,150.54.4s150.54,67.4,150.54,150.54" fill="#ffc300"/><path d="M150.38,57.72c3.57-.16,6.96.7,10.3,1.87,7.72,2.7,15.08,6.82,22.62,10.05,8.53,3.66,17.09,7.35,25.68,10.87,7.9,3.24,17.63,5.87,24.48,10.99,3.46,2.58,5.2,6.22,5.79,10.45.55,3.92.29,8.06.29,12.01v20.01c.07,11.36.08,22.71.02,34.07-.03,5.46.37,11.39-.44,16.79-.64,4.25-2.35,8-4.95,11.41-.98,1.28-2.04,2.47-3.19,3.59-1.15,1.12-2.38,2.15-3.69,3.08-4.05,2.86-8.59,5.24-12.88,7.74l-22.78,13.22-18.88,11.16c-3.46,2.05-6.97,4.39-10.64,6.04-2.93,1.32-6.11,1.85-9.27,2.29-3.89.39-7.62-.27-11.22-1.75-3.56-1.46-6.95-3.71-10.27-5.64l-17.7-10.26-24.85-14.37c-4.74-2.7-9.76-5.15-14.33-8.13-5.15-3.36-9.2-8.87-10.28-15-.9-5.08-.52-10.77-.53-15.93l-.04-25.31-.04-29.14c0-5.67-.32-11.63.39-17.26.29-2.29,1.58-4.8,2.99-6.63,1.34-1.73,4.5-3.36,6.47-4.33,4.92-2.41,10.26-4.13,15.3-6.33,10.49-4.58,20.84-9.47,31.36-14.02,7.08-3.06,14.07-7.07,21.3-9.67,2.92-1.05,5.94-1.49,9-1.89ZM156.22,144.61c.07,9.98-.52,85.04.82,86.92,12.71-7.19,25.1-15.07,37.74-22.43,7.99-4.65,21.32-11.38,27.97-16.81,2.11-1.72,3.91-4.09,4.61-6.76,1.6-6.08.7-13.89.68-20.18l-.16-34.19c0-6.71.82-19.45.03-25.29l-.32-.33c-23.62,13.26-47.32,26.6-71.38,39.06ZM145.48,230.88l-.16-86.61c-10.72-6.32-22.04-11.84-33.02-17.7-12.38-6.61-24.71-13.64-37.33-19.77.19,18.25.25,36.5.17,54.74,0,7.59-.73,18.24.28,25.38.27,1.89.61,2.69,2.01,4.03,5.77,5.55,19.88,12.05,27.48,16.39,13.58,7.75,26.97,15.83,40.57,23.54ZM83.73,97.75c13.72,8.45,28.38,15.41,42.65,22.88,8.03,4.21,15.77,9,23.83,13.14.41.21.8.38,1.28.29.34-.07.63-.2.95-.33l66.54-36.35c-13.9-5.49-27.62-11.61-41.27-17.69-7.96-3.55-16.16-7.64-24.41-10.41-1.1-.37-1.95-.55-3.12-.47-16.4,6.61-32.61,13.64-48.63,21.1-5.88,2.68-12.1,4.87-17.82,7.85Z" fill="#003f88" stroke="#003f88" stroke-miterlimit="10" stroke-width="7"/><path d="M388.55,301.13v-162.42h-19.7v-39.4h40.36v23.55h10.09c5.12-8.33,11.97-14.81,20.54-19.46,8.57-4.64,18.94-6.97,31.11-6.97,14.9,0,27.47,3.12,37.72,9.37,10.25,6.25,18.02,14.98,23.31,26.19,5.29,11.21,7.93,24.35,7.93,39.4s-2.56,28.23-7.69,39.52c-5.13,11.29-12.58,20.02-22.34,26.19-9.77,6.17-21.62,9.25-35.56,9.25-10.57,0-19.62-1.96-27.15-5.89-7.53-3.92-13.45-9.49-17.78-16.7h-.96v77.36h-39.88ZM463.52,211.75c12.17,0,21.3-3.6,27.39-10.81,6.08-7.21,9.13-17.06,9.13-29.55s-3.04-22.34-9.13-29.55c-6.09-7.21-15.22-10.81-27.39-10.81-10.73,0-19.26,3-25.59,9.01-6.33,6.01-9.49,14.3-9.49,24.87v12.97c0,10.57,3.16,18.86,9.49,24.87,6.33,6.01,14.86,9.01,25.59,9.01Z" fill="#003f88"/><path d="M613.2,246.1c-16.98,0-30.27-4.12-39.88-12.37-9.61-8.25-14.42-19.1-14.42-32.56,0-14.25,4.96-25.23,14.9-32.92,9.93-7.69,24.18-11.53,42.77-11.53h41.33v-5.53c0-15.53-9.29-23.31-27.87-23.31-16.18,0-25.95,5.61-29.31,16.82h-39.64c3.2-15.86,10.65-27.87,22.34-36.04,11.69-8.17,27.23-12.25,46.61-12.25,21.46,0,37.84,4.81,49.13,14.42,11.29,9.61,16.94,23.63,16.94,42.05v51.18h18.74v39.4h-40.36v-23.55h-10.09c-4.97,8.33-11.62,14.78-19.94,19.34-8.33,4.57-18.74,6.85-31.23,6.85ZM619.2,215.83c7.53,0,14.18-1.36,19.94-4.08,5.77-2.72,10.33-6.37,13.69-10.93,3.36-4.57,5.05-9.73,5.05-15.5v-2.16h-39.4c-14.42,0-21.62,5.37-21.62,16.1,0,5.29,2,9.37,6.01,12.25,4,2.88,9.45,4.33,16.34,4.33Z" fill="#003f88"/><path d="M807.57,246.35c-15.06,0-28.23-3.08-39.52-9.25-11.29-6.16-20.1-14.85-26.43-26.07-6.33-11.21-9.49-24.42-9.49-39.64s3.12-28.43,9.37-39.64c6.25-11.21,15.05-19.9,26.43-26.07,11.37-6.16,24.59-9.25,39.64-9.25,19.06,0,34.76,4.81,47.09,14.42,12.33,9.61,20.1,22.82,23.31,39.64h-40.12c-2.08-6.25-5.69-11.05-10.81-14.42-5.13-3.36-11.62-5.05-19.46-5.05-10.73,0-19.34,3.52-25.83,10.57-6.49,7.05-9.73,16.98-9.73,29.79s3.28,22.75,9.85,29.79c6.57,7.05,15.14,10.57,25.71,10.57,16.98,0,27.31-7.21,30.99-21.62h40.12c-2.88,17.62-10.49,31.4-22.83,41.33-12.34,9.93-28.43,14.9-48.29,14.9Z" fill="#003f88"/><path d="M888.05,243.46v-24.03l74.96-88.42h-70.64v-31.71h121.09v24.03l-74.96,88.42h76.4v31.71h-126.86Z" fill="#003f88"/><path d="M1040.62,243.46V41.64h39.88v109.32h.96l56.7-51.66h47.57l-61.27,55.26,65.83,88.9h-46.61l-47.33-64.63-15.86,12.97v51.66h-39.88Z" fill="#003f88"/><path d="M1273.91,246.35c-15.7,0-29.35-3.08-40.96-9.25-11.62-6.16-20.62-14.9-27.03-26.19-6.41-11.29-9.61-24.54-9.61-39.76s3.16-28.43,9.49-39.64c6.33-11.21,15.38-19.86,27.15-25.95,11.77-6.09,25.51-9.13,41.21-9.13s29.27,3.04,40.72,9.13c11.45,6.09,20.34,14.74,26.67,25.95,6.33,11.21,9.49,24.51,9.49,39.88s-3.12,28.47-9.37,39.76c-6.25,11.29-15.18,19.98-26.79,26.07-11.62,6.09-25.27,9.13-40.96,9.13ZM1273.91,211.75c12.01,0,21.22-3.64,27.63-10.93,6.4-7.29,9.61-17.18,9.61-29.67s-3.21-22.3-9.61-29.43c-6.41-7.12-15.62-10.69-27.63-10.69s-21.5,3.57-27.99,10.69c-6.49,7.13-9.73,16.94-9.73,29.43s3.24,22.39,9.73,29.67c6.49,7.29,15.82,10.93,27.99,10.93Z" fill="#003f88"/><path d="M1442.08,246.1c-16.98,0-30.27-4.12-39.88-12.37-9.61-8.25-14.42-19.1-14.42-32.56,0-14.25,4.96-25.23,14.9-32.92,9.93-7.69,24.18-11.53,42.77-11.53h41.33v-5.53c0-15.53-9.29-23.31-27.87-23.31-16.18,0-25.95,5.61-29.31,16.82h-39.64c3.2-15.86,10.65-27.87,22.34-36.04,11.69-8.17,27.23-12.25,46.61-12.25,21.46,0,37.84,4.81,49.13,14.42,11.29,9.61,16.94,23.63,16.94,42.05v51.18h18.74v39.4h-40.36v-23.55h-10.09c-4.97,8.33-11.62,14.78-19.94,19.34-8.33,4.57-18.74,6.85-31.23,6.85ZM1448.08,215.83c7.53,0,14.18-1.36,19.94-4.08,5.77-2.72,10.33-6.37,13.69-10.93,3.36-4.57,5.05-9.73,5.05-15.5v-2.16h-39.4c-14.42,0-21.62,5.37-21.62,16.1,0,5.29,2,9.37,6.01,12.25,4,2.88,9.45,4.33,16.34,4.33Z" fill="#ffc300" stroke="#003f88" stroke-miterlimit="10" stroke-width="4"/><path d="M1574.46,301.13v-162.42h-19.7v-39.4h40.36v23.55h10.09c5.12-8.33,11.97-14.81,20.54-19.46,8.57-4.64,18.94-6.97,31.11-6.97,14.9,0,27.47,3.12,37.72,9.37,10.25,6.25,18.02,14.98,23.31,26.19,5.29,11.21,7.93,24.35,7.93,39.4s-2.56,28.23-7.69,39.52c-5.13,11.29-12.58,20.02-22.34,26.19-9.77,6.17-21.62,9.25-35.56,9.25-10.57,0-19.62-1.96-27.15-5.89-7.53-3.92-13.45-9.49-17.78-16.7h-.96v77.36h-39.88ZM1649.42,211.75c12.17,0,21.3-3.6,27.39-10.81,6.08-7.21,9.13-17.06,9.13-29.55s-3.04-22.34-9.13-29.55c-6.09-7.21-15.22-10.81-27.39-10.81-10.73,0-19.26,3-25.59,9.01-6.33,6.01-9.49,14.3-9.49,24.87v12.97c0,10.57,3.16,18.86,9.49,24.87,6.33,6.01,14.86,9.01,25.59,9.01Z" fill="#ffc300" stroke="#003f88" stroke-miterlimit="10" stroke-width="4"/><path d="M1773.16,85.13c-6.09,0-11.25-2.12-15.5-6.37-4.25-4.24-6.37-9.41-6.37-15.5s2.12-11.25,6.37-15.5c4.24-4.24,9.41-6.37,15.5-6.37s11.25,2.12,15.5,6.37c4.24,4.25,6.37,9.41,6.37,15.5s-2.12,11.25-6.37,15.5c-4.25,4.25-9.41,6.37-15.5,6.37ZM1753.21,243.46V99.3h39.88v144.16h-39.88Z" fill="#ffc300" stroke="#003f88" stroke-miterlimit="10" stroke-width="4"/></svg>