<?xml version="1.0" encoding="UTF-8"?><svg id="a" xmlns="http://www.w3.org/2000/svg" viewBox="0 0 512 512"><rect width="512" height="512" fill="#ffc300"/><path d="M252.63,132.19c3.33-.15,6.49.65,9.61,1.74,7.2,2.52,14.07,6.36,21.09,9.37,7.95,3.41,15.94,6.85,23.95,10.14,7.37,3.02,16.44,5.48,22.83,10.25,3.23,2.41,4.85,5.8,5.4,9.75.51,3.65.27,7.51.27,11.2v18.66c.06,10.59.07,21.18.02,31.77-.03,5.09.35,10.62-.41,15.66-.59,3.96-2.19,7.46-4.61,10.64-.91,1.19-1.9,2.31-2.98,3.35-1.07,1.04-2.22,2-3.44,2.87-3.78,2.67-8.01,4.89-12.01,7.22l-21.25,12.33-17.61,10.41c-3.23,1.91-6.5,4.1-9.93,5.64-2.73,1.23-5.7,1.73-8.64,2.13-3.63.36-7.1-.25-10.47-1.63-3.32-1.36-6.48-3.46-9.58-5.26l-16.51-9.57-23.17-13.4c-4.42-2.52-9.11-4.8-13.36-7.58-4.8-3.13-8.58-8.28-9.59-13.98-.84-4.74-.49-10.05-.49-14.85l-.04-23.6-.03-27.17c0-5.29-.3-10.85.36-16.09.27-2.14,1.47-4.48,2.79-6.18,1.25-1.61,4.2-3.14,6.04-4.04,4.59-2.25,9.57-3.85,14.26-5.9,9.79-4.27,19.43-8.83,29.25-13.07,6.6-2.85,13.12-6.59,19.86-9.02,2.72-.98,5.54-1.39,8.39-1.76ZM258.07,213.22c.06,9.31-.49,79.31.77,81.06,11.85-6.71,23.41-14.06,35.19-20.91,7.45-4.34,19.88-10.61,26.09-15.67,1.97-1.61,3.65-3.82,4.3-6.3,1.49-5.67.66-12.95.63-18.82l-.15-31.88c0-6.26.76-18.14.03-23.59l-.3-.3c-22.03,12.37-44.13,24.81-66.56,36.43ZM248.06,293.68l-.15-80.77c-9.99-5.89-20.55-11.05-30.79-16.51-11.55-6.16-23.04-12.72-34.81-18.44.18,17.02.23,34.03.16,51.05,0,7.08-.68,17.01.26,23.67.25,1.76.57,2.51,1.87,3.76,5.38,5.17,18.54,11.24,25.63,15.28,12.66,7.23,25.15,14.76,37.83,21.95ZM190.46,169.53c12.79,7.88,26.46,14.37,39.77,21.34,7.49,3.92,14.71,8.39,22.22,12.25.39.2.75.36,1.19.27.32-.06.59-.19.88-.31l62.06-33.9c-12.96-5.12-25.76-10.83-38.48-16.5-7.42-3.31-15.07-7.12-22.76-9.71-1.02-.34-1.82-.51-2.91-.44-15.29,6.16-30.41,12.72-45.35,19.68-5.48,2.5-11.29,4.54-16.61,7.32Z" fill="#003f88" stroke="#003f88" stroke-miterlimit="10" stroke-width="7"/><path d="M393.16,219.13c0,90.11-97.2,178.87-129.84,207.05-6.25,4.7-14.85,4.7-21.09,0-32.64-28.18-129.84-119.43-129.84-207.05,0-77.53,62.85-140.39,140.39-140.39s140.39,62.85,140.39,140.39" fill="none" stroke="#003f88" stroke-linecap="round" stroke-linejoin="round" stroke-width="20"/></svg>