<?xml version="1.0" encoding="UTF-8"?><svg id="a" xmlns="http://www.w3.org/2000/svg" viewBox="0 0 512 512"><rect width="512" height="512" fill="#003f88"/><path d="M406.54,218.37c0,96.62-104.23,191.8-139.23,222.03-6.7,5.04-15.92,5.04-22.62,0-35-30.22-139.23-128.07-139.23-222.03,0-83.14,67.4-150.54,150.54-150.54s150.54,67.4,150.54,150.54" fill="#ffc300"/><path d="M255.84,125.14c3.57-.16,6.96.7,10.3,1.87,7.72,2.7,15.08,6.82,22.62,10.05,8.53,3.66,17.09,7.35,25.68,10.87,7.9,3.24,17.63,5.87,24.48,10.99,3.46,2.58,5.2,6.22,5.79,10.45.55,3.92.29,8.06.29,12.01v20.01c.07,11.36.08,22.71.02,34.07-.03,5.46.37,11.39-.44,16.79-.64,4.25-2.35,8-4.95,11.41-.98,1.28-2.04,2.47-3.19,3.59-1.15,1.12-2.38,2.15-3.69,3.08-4.05,2.86-8.59,5.24-12.88,7.74l-22.78,13.22-18.88,11.16c-3.46,2.05-6.97,4.39-10.64,6.04-2.93,1.32-6.11,1.85-9.27,2.29-3.89.39-7.62-.27-11.22-1.75-3.56-1.46-6.95-3.71-10.27-5.64l-17.7-10.26-24.85-14.37c-4.74-2.7-9.76-5.15-14.33-8.13-5.15-3.36-9.2-8.87-10.28-15-.9-5.08-.52-10.77-.53-15.93l-.04-25.31-.04-29.14c0-5.67-.32-11.63.39-17.26.29-2.29,1.58-4.8,2.99-6.63,1.34-1.73,4.5-3.36,6.47-4.33,4.92-2.41,10.26-4.13,15.3-6.33,10.49-4.58,20.84-9.47,31.36-14.02,7.08-3.06,14.07-7.07,21.3-9.67,2.92-1.05,5.94-1.49,9-1.89ZM261.68,212.03c.07,9.98-.52,85.04.82,86.92,12.71-7.19,25.1-15.07,37.74-22.43,7.99-4.65,21.32-11.38,27.97-16.81,2.11-1.72,3.91-4.09,4.61-6.76,1.6-6.08.7-13.89.68-20.18l-.16-34.19c0-6.71.82-19.45.03-25.29l-.32-.33c-23.62,13.26-47.32,26.6-71.38,39.06ZM250.94,298.31l-.16-86.61c-10.72-6.32-22.04-11.84-33.02-17.7-12.38-6.61-24.71-13.64-37.33-19.77.19,18.25.25,36.5.17,54.74,0,7.59-.73,18.24.28,25.38.27,1.89.61,2.69,2.01,4.03,5.77,5.55,19.88,12.05,27.48,16.39,13.58,7.75,26.97,15.83,40.57,23.54ZM189.19,165.18c13.72,8.45,28.38,15.41,42.65,22.88,8.03,4.21,15.77,9,23.83,13.14.41.21.8.38,1.28.29.34-.07.63-.2.95-.33l66.54-36.35c-13.9-5.49-27.62-11.61-41.27-17.69-7.96-3.55-16.16-7.64-24.41-10.41-1.1-.37-1.95-.55-3.12-.47-16.4,6.61-32.61,13.64-48.63,21.1-5.88,2.68-12.1,4.87-17.82,7.85Z" fill="#003f88" stroke="#003f88" stroke-miterlimit="10" stroke-width="7"/></svg>