<?xml version="1.0" encoding="UTF-8"?><svg id="a" xmlns="http://www.w3.org/2000/svg" viewBox="0 0 341.37 426.71"><path d="M341.37,170.69c0,109.56-118.18,217.48-157.86,251.74-7.59,5.71-18.05,5.71-25.65,0C118.18,388.16,0,277.22,0,170.69,0,76.42,76.42,0,170.69,0s170.69,76.42,170.69,170.69" fill="#ffc300"/><path d="M170.51,64.99c4.05-.18,7.9.79,11.68,2.12,8.76,3.06,17.1,7.73,25.64,11.4,9.67,4.15,19.38,8.33,29.12,12.32,8.96,3.67,19.99,6.66,27.76,12.46,3.92,2.93,5.89,7.06,6.56,11.85.62,4.44.33,9.14.33,13.61v22.69c.08,12.88.09,25.75.02,38.63-.03,6.19.42,12.92-.5,19.04-.72,4.81-2.66,9.07-5.61,12.93-1.11,1.45-2.31,2.8-3.62,4.07-1.31,1.27-2.7,2.43-4.18,3.49-4.6,3.25-9.74,5.94-14.6,8.77l-25.83,14.99-21.41,12.66c-3.92,2.32-7.91,4.98-12.07,6.85-3.33,1.49-6.92,2.1-10.51,2.6-4.41.44-8.64-.31-12.72-1.98-4.04-1.65-7.88-4.2-11.65-6.39l-20.07-11.63-28.17-16.29c-5.38-3.06-11.07-5.84-16.25-9.22-5.84-3.81-10.43-10.06-11.66-17-1.02-5.76-.59-12.21-.6-18.06l-.05-28.69-.04-33.04c0-6.43-.36-13.19.44-19.57.33-2.6,1.79-5.44,3.39-7.52,1.52-1.96,5.11-3.81,7.34-4.91,5.58-2.73,11.63-4.68,17.34-7.17,11.9-5.2,23.63-10.74,35.56-15.89,8.02-3.46,15.95-8.01,24.15-10.96,3.31-1.19,6.74-1.69,10.21-2.14ZM177.12,163.51c.07,11.32-.59,96.42.93,98.55,14.41-8.15,28.46-17.09,42.79-25.43,9.06-5.27,24.17-12.9,31.72-19.06,2.39-1.95,4.43-4.64,5.23-7.66,1.81-6.9.8-15.75.77-22.89l-.18-38.77c.01-7.61.93-22.06.03-28.68l-.36-.37c-26.79,15.04-53.65,30.16-80.93,44.29ZM164.95,261.33l-.18-98.2c-12.15-7.16-24.98-13.43-37.44-20.07-14.04-7.49-28.02-15.47-42.32-22.41.22,20.69.28,41.38.19,62.07,0,8.61-.83,20.68.32,28.78.3,2.14.69,3.05,2.27,4.57,6.54,6.29,22.55,13.67,31.16,18.58,15.4,8.78,30.57,17.94,46,26.69ZM94.93,110.38c15.56,9.58,32.17,17.47,48.35,25.95,9.11,4.77,17.88,10.2,27.02,14.89.47.24.91.43,1.45.33.39-.07.71-.23,1.07-.38l75.45-41.22c-15.76-6.22-31.31-13.16-46.79-20.06-9.02-4.02-18.32-8.66-27.68-11.81-1.24-.42-2.21-.62-3.54-.53-18.59,7.49-36.97,15.47-55.14,23.93-6.66,3.03-13.72,5.52-20.2,8.9Z" fill="#003f88" stroke="#003f88" stroke-miterlimit="10" stroke-width="7"/></svg>